<svg width="152" height="152" viewBox="0 0 152 152" fill="none" xmlns="http://www.w3.org/2000/svg">
<rect width="152" height="152" fill="#EEEEEE"/>
<path d="M77.9458 50L66.4967 89.5787H57.7973L50.0979 62.7783L42.1485 89.5787H33.4991L22 50H30.3994L38.2988 77.8182L46.5482 50H54.0476L62.047 78.0443L70.1964 50H77.9458Z" fill="#141517"/>
<path d="M90.7648 58.7073C94.9311 58.7073 98.1309 59.8381 100.364 62.0998C102.597 64.3237 103.714 67.6973 103.714 72.2206V89.5787H96.4144V85.7905C94.9478 88.6175 92.2147 90.031 88.215 90.031C86.1485 90.031 84.3486 89.6353 82.8154 88.8437C81.3155 88.0521 80.1656 86.959 79.3656 85.5643C78.5657 84.1696 78.1657 82.5865 78.1657 80.8149C78.1657 77.9878 79.099 75.7639 80.9655 74.143C82.8654 72.5222 85.7818 71.7117 89.7149 71.7117H95.9144C95.9144 69.7894 95.3978 68.3193 94.3645 67.3016C93.3313 66.2461 91.7814 65.7184 89.7149 65.7184C88.2816 65.7184 86.8651 65.9823 85.4652 66.51C84.0986 67 82.932 67.6785 81.9654 68.5455L79.1657 62.3825C80.6322 61.214 82.3821 60.3093 84.4153 59.6685C86.4818 59.0277 88.5983 58.7073 90.7648 58.7073ZM90.1648 84.0942C91.4981 84.0942 92.6813 83.755 93.7146 83.0765C94.7478 82.3603 95.4811 81.3237 95.9144 79.9667V76.857H90.5648C87.365 76.857 85.7652 78.0443 85.7652 80.4191C85.7652 81.5499 86.1485 82.4545 86.9151 83.133C87.715 83.7738 88.7983 84.0942 90.1648 84.0942Z" fill="#141517"/>
<path d="M136.982 59.1596L124.833 91.4446C123.6 94.9501 122.067 97.4191 120.234 98.8514C118.434 100.284 116.251 101 113.684 101C112.284 101 110.901 100.755 109.534 100.265C108.168 99.7749 107.051 99.0964 106.185 98.2295L109.035 91.9534C109.634 92.5565 110.318 93.0277 111.084 93.367C111.884 93.7062 112.668 93.8758 113.434 93.8758C114.501 93.8758 115.367 93.5743 116.034 92.9712C116.701 92.4058 117.301 91.4446 117.834 90.0876L117.934 89.8049L106.285 59.1596H114.334L121.884 79.7971L129.483 59.1596H136.982Z" fill="#141517"/>
<path d="M137.017 59.1573L124.868 91.4422C123.635 94.9477 122.102 97.4167 120.269 98.8491C118.469 100.281 116.286 100.998 113.719 100.998C112.319 100.998 110.936 100.753 109.569 100.263C108.203 99.7726 107.086 99.0941 106.22 98.2271L109.069 91.9511C109.669 92.5542 110.353 93.0253 111.119 93.3646C111.919 93.7038 112.702 93.8735 113.469 93.8735C114.536 93.8735 115.402 93.5719 116.069 92.9688C116.735 92.4034 117.335 91.4422 117.869 90.0852L117.969 89.8025L121.918 79.7947L129.518 59.1573H137.017Z" fill="#FE7865"/>
</svg>
